# Blender 5.0.0
# www.blender.org
mtllib SimpleTreeGreen.mtl
o Cone.002
v 0.000000 9.000000 -1.500000
v 0.292636 9.000000 -1.471178
v 0.574025 9.000000 -1.385819
v 0.833355 9.000000 -1.247204
v 1.060660 9.000000 -1.060660
v 1.247204 9.000000 -0.833355
v 1.385819 9.000000 -0.574025
v 1.471178 9.000000 -0.292636
v 1.500000 9.000000 0.000000
v 1.471178 9.000000 0.292636
v 1.385819 9.000000 0.574025
v 1.247204 9.000000 0.833355
v 1.060660 9.000000 1.060660
v 0.833355 9.000000 1.247204
v 0.574025 9.000000 1.385819
v 0.292636 9.000000 1.471178
v 0.000000 9.000000 1.500000
v -0.292636 9.000000 1.471178
v -0.574025 9.000000 1.385819
v -0.833355 9.000000 1.247204
v -1.060660 9.000000 1.060660
v -1.247204 9.000000 0.833355
v -1.385819 9.000000 0.574025
v -1.471178 9.000000 0.292636
v -1.500000 9.000000 0.000000
v -1.471178 9.000000 -0.292636
v -1.385819 9.000000 -0.574025
v -1.247204 9.000000 -0.833355
v -1.060660 9.000000 -1.060660
v -0.833355 9.000000 -1.247204
v -0.574025 9.000000 -1.385819
v -0.292636 9.000000 -1.471178
v 0.000000 12.000000 0.000000
v 0.000000 3.000000 -3.500000
v 0.682816 3.000000 -3.432749
v 1.339392 3.000000 -3.233579
v 1.944496 3.000000 -2.910144
v 2.474874 3.000000 -2.474874
v 2.910144 3.000000 -1.944496
v 3.233579 3.000000 -1.339392
v 3.432749 3.000000 -0.682816
v 3.500000 3.000000 0.000000
v 3.432749 3.000000 0.682816
v 3.233579 3.000000 1.339392
v 2.910144 3.000000 1.944496
v 2.474874 3.000000 2.474874
v 1.944496 3.000000 2.910144
v 1.339392 3.000000 3.233579
v 0.682816 3.000000 3.432749
v 0.000000 3.000000 3.500000
v -0.682816 3.000000 3.432749
v -1.339392 3.000000 3.233579
v -1.944496 3.000000 2.910144
v -2.474874 3.000000 2.474874
v -2.910144 3.000000 1.944496
v -3.233579 3.000000 1.339392
v -3.432749 3.000000 0.682816
v -3.500000 3.000000 0.000000
v -3.432749 3.000000 -0.682816
v -3.233579 3.000000 -1.339392
v -2.910144 3.000000 -1.944496
v -2.474874 3.000000 -2.474874
v -1.944496 3.000000 -2.910144
v -1.339392 3.000000 -3.233579
v -0.682816 3.000000 -3.432749
v 0.000000 9.000000 0.000000
v 0.000000 6.500000 -2.500000
v 0.487726 6.500000 -2.451963
v 0.956709 6.500000 -2.309699
v 1.388926 6.500000 -2.078674
v 1.767767 6.500000 -1.767767
v 2.078674 6.500000 -1.388926
v 2.309699 6.500000 -0.956709
v 2.451963 6.500000 -0.487726
v 2.500000 6.500000 0.000000
v 2.451963 6.500000 0.487726
v 2.309699 6.500000 0.956709
v 2.078674 6.500000 1.388926
v 1.767767 6.500000 1.767767
v 1.388926 6.500000 2.078674
v 0.956709 6.500000 2.309699
v 0.487726 6.500000 2.451963
v 0.000000 6.500000 2.500000
v -0.487726 6.500000 2.451963
v -0.956709 6.500000 2.309699
v -1.388926 6.500000 2.078674
v -1.767767 6.500000 1.767767
v -2.078674 6.500000 1.388926
v -2.309699 6.500000 0.956709
v -2.451963 6.500000 0.487726
v -2.500000 6.500000 0.000000
v -2.451963 6.500000 -0.487726
v -2.309699 6.500000 -0.956709
v -2.078674 6.500000 -1.388926
v -1.767767 6.500000 -1.767767
v -1.388926 6.500000 -2.078674
v -0.956709 6.500000 -2.309699
v -0.487726 6.500000 -2.451963
v 0.000000 10.500001 0.000000
vn 0.0878 0.4455 -0.8910
vn 0.2599 0.4455 -0.8567
vn 0.4220 0.4455 -0.7896
vn 0.5680 0.4455 -0.6921
vn 0.6921 0.4455 -0.5680
vn 0.7896 0.4455 -0.4220
vn 0.8567 0.4455 -0.2599
vn 0.8910 0.4455 -0.0878
vn 0.8910 0.4455 0.0878
vn 0.8567 0.4455 0.2599
vn 0.7896 0.4455 0.4220
vn 0.6921 0.4455 0.5680
vn 0.5680 0.4455 0.6921
vn 0.4220 0.4455 0.7896
vn 0.2599 0.4455 0.8567
vn 0.0878 0.4455 0.8910
vn -0.0878 0.4455 0.8910
vn -0.2599 0.4455 0.8567
vn -0.4220 0.4455 0.7896
vn -0.5680 0.4455 0.6921
vn -0.6921 0.4455 0.5680
vn -0.7896 0.4455 0.4220
vn -0.8567 0.4455 0.2599
vn -0.8910 0.4455 0.0878
vn -0.8910 0.4455 -0.0878
vn -0.8567 0.4455 -0.2599
vn -0.7896 0.4455 -0.4220
vn -0.6921 0.4455 -0.5680
vn -0.5680 0.4455 -0.6921
vn -0.4220 0.4455 -0.7896
vn -0.0000 -1.0000 -0.0000
vn -0.2599 0.4455 -0.8567
vn -0.0878 0.4455 -0.8910
vn 0.0848 0.5021 -0.8607
vn 0.2510 0.5021 -0.8276
vn 0.4077 0.5021 -0.7627
vn 0.5486 0.5021 -0.6685
vn 0.6685 0.5021 -0.5486
vn 0.7627 0.5021 -0.4077
vn 0.8276 0.5021 -0.2510
vn 0.8607 0.5021 -0.0848
vn 0.8607 0.5021 0.0848
vn 0.8276 0.5021 0.2510
vn 0.7627 0.5021 0.4077
vn 0.6685 0.5021 0.5486
vn 0.5486 0.5021 0.6685
vn 0.4077 0.5021 0.7627
vn 0.2510 0.5021 0.8276
vn 0.0848 0.5021 0.8607
vn -0.0848 0.5021 0.8607
vn -0.2510 0.5021 0.8276
vn -0.4077 0.5021 0.7627
vn -0.5486 0.5021 0.6685
vn -0.6685 0.5021 0.5486
vn -0.7627 0.5021 0.4077
vn -0.8276 0.5021 0.2510
vn -0.8607 0.5021 0.0848
vn -0.8607 0.5021 -0.0848
vn -0.8276 0.5021 -0.2510
vn -0.7627 0.5021 -0.4077
vn -0.6685 0.5021 -0.5486
vn -0.5486 0.5021 -0.6685
vn -0.4077 0.5021 -0.7627
vn -0.2510 0.5021 -0.8276
vn -0.0848 0.5021 -0.8607
vn 0.0832 0.5282 -0.8451
vn 0.2465 0.5282 -0.8126
vn 0.4003 0.5282 -0.7489
vn 0.5387 0.5282 -0.6564
vn 0.6564 0.5282 -0.5387
vn 0.7489 0.5282 -0.4003
vn 0.8126 0.5282 -0.2465
vn 0.8451 0.5282 -0.0832
vn 0.8451 0.5282 0.0832
vn 0.8126 0.5282 0.2465
vn 0.7489 0.5282 0.4003
vn 0.6564 0.5282 0.5387
vn 0.5387 0.5282 0.6564
vn 0.4003 0.5282 0.7489
vn 0.2465 0.5282 0.8126
vn 0.0832 0.5282 0.8451
vn -0.0832 0.5282 0.8451
vn -0.2465 0.5282 0.8126
vn -0.4003 0.5282 0.7489
vn -0.5387 0.5282 0.6564
vn -0.6564 0.5282 0.5387
vn -0.7489 0.5282 0.4003
vn -0.8126 0.5282 0.2465
vn -0.8451 0.5282 0.0832
vn -0.8451 0.5282 -0.0832
vn -0.8126 0.5282 -0.2465
vn -0.7489 0.5282 -0.4003
vn -0.6564 0.5282 -0.5387
vn -0.5387 0.5282 -0.6564
vn -0.4003 0.5282 -0.7489
vn -0.2465 0.5282 -0.8126
vn -0.0832 0.5282 -0.8451
vt 0.250000 0.490000
vt 0.250000 0.250000
vt 0.296822 0.485388
vt 0.341844 0.471731
vt 0.383337 0.449553
vt 0.419706 0.419706
vt 0.449553 0.383337
vt 0.471731 0.341844
vt 0.485388 0.296822
vt 0.490000 0.250000
vt 0.485388 0.203178
vt 0.471731 0.158156
vt 0.449553 0.116663
vt 0.419706 0.080294
vt 0.383337 0.050447
vt 0.341844 0.028269
vt 0.296822 0.014612
vt 0.250000 0.010000
vt 0.203178 0.014612
vt 0.158156 0.028269
vt 0.116663 0.050447
vt 0.080294 0.080294
vt 0.050447 0.116663
vt 0.028269 0.158156
vt 0.014612 0.203178
vt 0.010000 0.250000
vt 0.014612 0.296822
vt 0.028269 0.341844
vt 0.050447 0.383337
vt 0.080294 0.419706
vt 0.116663 0.449553
vt 0.158156 0.471731
vt 0.750000 0.490000
vt 0.796822 0.485388
vt 0.841844 0.471731
vt 0.883337 0.449553
vt 0.919706 0.419706
vt 0.949553 0.383337
vt 0.971731 0.341844
vt 0.985388 0.296822
vt 0.990000 0.250000
vt 0.985388 0.203178
vt 0.971731 0.158156
vt 0.949553 0.116663
vt 0.919706 0.080294
vt 0.883337 0.050447
vt 0.841844 0.028269
vt 0.796822 0.014612
vt 0.750000 0.010000
vt 0.703178 0.014612
vt 0.658156 0.028269
vt 0.616663 0.050447
vt 0.580294 0.080294
vt 0.550447 0.116663
vt 0.528269 0.158156
vt 0.514612 0.203178
vt 0.510000 0.250000
vt 0.514612 0.296822
vt 0.528269 0.341844
vt 0.550447 0.383337
vt 0.580294 0.419706
vt 0.616663 0.449553
vt 0.658156 0.471731
vt 0.703178 0.485388
vt 0.203178 0.485388
s 0
f 1/1/1 33/2/1 2/3/1
f 2/3/2 33/2/2 3/4/2
f 3/4/3 33/2/3 4/5/3
f 4/5/4 33/2/4 5/6/4
f 5/6/5 33/2/5 6/7/5
f 6/7/6 33/2/6 7/8/6
f 7/8/7 33/2/7 8/9/7
f 8/9/8 33/2/8 9/10/8
f 9/10/9 33/2/9 10/11/9
f 10/11/10 33/2/10 11/12/10
f 11/12/11 33/2/11 12/13/11
f 12/13/12 33/2/12 13/14/12
f 13/14/13 33/2/13 14/15/13
f 14/15/14 33/2/14 15/16/14
f 15/16/15 33/2/15 16/17/15
f 16/17/16 33/2/16 17/18/16
f 17/18/17 33/2/17 18/19/17
f 18/19/18 33/2/18 19/20/18
f 19/20/19 33/2/19 20/21/19
f 20/21/20 33/2/20 21/22/20
f 21/22/21 33/2/21 22/23/21
f 22/23/22 33/2/22 23/24/22
f 23/24/23 33/2/23 24/25/23
f 24/25/24 33/2/24 25/26/24
f 25/26/25 33/2/25 26/27/25
f 26/27/26 33/2/26 27/28/26
f 27/28/27 33/2/27 28/29/27
f 28/29/28 33/2/28 29/30/28
f 29/30/29 33/2/29 30/31/29
f 30/31/30 33/2/30 31/32/30
f 1/33/31 2/34/31 3/35/31 4/36/31 5/37/31 6/38/31 7/39/31 8/40/31 9/41/31 10/42/31 11/43/31 12/44/31 13/45/31 14/46/31 15/47/31 16/48/31 17/49/31 18/50/31 19/51/31 20/52/31 21/53/31 22/54/31 23/55/31 24/56/31 25/57/31 26/58/31 27/59/31 28/60/31 29/61/31 30/62/31 31/63/31 32/64/31
f 31/32/32 33/2/32 32/65/32
f 32/65/33 33/2/33 1/1/33
f 34/1/34 66/2/34 35/3/34
f 35/3/35 66/2/35 36/4/35
f 36/4/36 66/2/36 37/5/36
f 37/5/37 66/2/37 38/6/37
f 38/6/38 66/2/38 39/7/38
f 39/7/39 66/2/39 40/8/39
f 40/8/40 66/2/40 41/9/40
f 41/9/41 66/2/41 42/10/41
f 42/10/42 66/2/42 43/11/42
f 43/11/43 66/2/43 44/12/43
f 44/12/44 66/2/44 45/13/44
f 45/13/45 66/2/45 46/14/45
f 46/14/46 66/2/46 47/15/46
f 47/15/47 66/2/47 48/16/47
f 48/16/48 66/2/48 49/17/48
f 49/17/49 66/2/49 50/18/49
f 50/18/50 66/2/50 51/19/50
f 51/19/51 66/2/51 52/20/51
f 52/20/52 66/2/52 53/21/52
f 53/21/53 66/2/53 54/22/53
f 54/22/54 66/2/54 55/23/54
f 55/23/55 66/2/55 56/24/55
f 56/24/56 66/2/56 57/25/56
f 57/25/57 66/2/57 58/26/57
f 58/26/58 66/2/58 59/27/58
f 59/27/59 66/2/59 60/28/59
f 60/28/60 66/2/60 61/29/60
f 61/29/61 66/2/61 62/30/61
f 62/30/62 66/2/62 63/31/62
f 63/31/63 66/2/63 64/32/63
f 34/33/31 35/34/31 36/35/31 37/36/31 38/37/31 39/38/31 40/39/31 41/40/31 42/41/31 43/42/31 44/43/31 45/44/31 46/45/31 47/46/31 48/47/31 49/48/31 50/49/31 51/50/31 52/51/31 53/52/31 54/53/31 55/54/31 56/55/31 57/56/31 58/57/31 59/58/31 60/59/31 61/60/31 62/61/31 63/62/31 64/63/31 65/64/31
f 64/32/64 66/2/64 65/65/64
f 65/65/65 66/2/65 34/1/65
f 67/1/66 99/2/66 68/3/66
f 68/3/67 99/2/67 69/4/67
f 69/4/68 99/2/68 70/5/68
f 70/5/69 99/2/69 71/6/69
f 71/6/70 99/2/70 72/7/70
f 72/7/71 99/2/71 73/8/71
f 73/8/72 99/2/72 74/9/72
f 74/9/73 99/2/73 75/10/73
f 75/10/74 99/2/74 76/11/74
f 76/11/75 99/2/75 77/12/75
f 77/12/76 99/2/76 78/13/76
f 78/13/77 99/2/77 79/14/77
f 79/14/78 99/2/78 80/15/78
f 80/15/79 99/2/79 81/16/79
f 81/16/80 99/2/80 82/17/80
f 82/17/81 99/2/81 83/18/81
f 83/18/82 99/2/82 84/19/82
f 84/19/83 99/2/83 85/20/83
f 85/20/84 99/2/84 86/21/84
f 86/21/85 99/2/85 87/22/85
f 87/22/86 99/2/86 88/23/86
f 88/23/87 99/2/87 89/24/87
f 89/24/88 99/2/88 90/25/88
f 90/25/89 99/2/89 91/26/89
f 91/26/90 99/2/90 92/27/90
f 92/27/91 99/2/91 93/28/91
f 93/28/92 99/2/92 94/29/92
f 94/29/93 99/2/93 95/30/93
f 95/30/94 99/2/94 96/31/94
f 96/31/95 99/2/95 97/32/95
f 67/33/31 68/34/31 69/35/31 70/36/31 71/37/31 72/38/31 73/39/31 74/40/31 75/41/31 76/42/31 77/43/31 78/44/31 79/45/31 80/46/31 81/47/31 82/48/31 83/49/31 84/50/31 85/51/31 86/52/31 87/53/31 88/54/31 89/55/31 90/56/31 91/57/31 92/58/31 93/59/31 94/60/31 95/61/31 96/62/31 97/63/31 98/64/31
f 97/32/96 99/2/96 98/65/96
f 98/65/97 99/2/97 67/1/97
